<?xml version="1.0" ?><!DOCTYPE svg  PUBLIC '-//W3C//DTD SVG 1.1//EN'  'http://www.w3.org/Graphics/SVG/1.1/DTD/svg11.dtd'><svg enable-background="new 0 0 512 512" height="512px" id="Layer_1" version="1.1" viewBox="0 0 512 512" width="512px" xml:space="preserve" xmlns="http://www.w3.org/2000/svg" xmlns:xlink="http://www.w3.org/1999/xlink"><path d="M440.333,195.783c-5.815-26.085-29.004-45.632-56.898-45.632c-11.692,0-22.556,3.517-31.669,9.461  c-19.727-29.34-53.187-48.668-91.21-48.668c-39.02,0-73.065,20.512-92.542,51.205c-13.115-5.428-27.437-8.496-42.51-8.496  c-61.604,0-111.554,49.954-111.554,111.546c0,61.604,49.95,111.562,111.554,111.562c17.585,0,33.999-4.455,48.79-11.708  c10.293,22.282,32.67,37.82,58.817,37.82c25.831,0,47.898-15.155,58.363-36.961c14.35,9.566,31.584,15.187,50.115,15.187  c40.641,0,74.601-26.887,86.121-63.706c3.056,0.469,6.119,0.938,9.309,0.938c33.951,0,61.479-27.495,61.479-61.42  C498.498,224.099,472.722,197.553,440.333,195.783z" fill="#010101"/></svg>